<svg width="33" height="30" viewBox="0 0 33 30" fill="none" xmlns="http://www.w3.org/2000/svg">
<g filter="url(#filter0_d_56_1540)">
<path d="M28.448 8.09209C28.2955 7.87908 28.0909 7.77258 27.8341 7.77258H11.4876L11.0439 6.61757C10.9316 6.23889 10.7791 5.91543 10.5865 5.6472C10.3939 5.37897 10.1893 5.18963 9.97259 5.07918C9.75592 4.96873 9.56734 4.89378 9.40684 4.85434C9.24635 4.81489 9.08585 4.79517 8.92536 4.79517H5.62717C5.41852 4.79517 5.24198 4.86617 5.09753 5.00817C4.95308 5.15018 4.88086 5.33163 4.88086 5.55253C4.88086 5.67876 4.91296 5.80104 4.97716 5.91938C5.04136 6.03772 5.13364 6.12844 5.25401 6.19155C5.37438 6.25467 5.49877 6.28622 5.62717 6.28622H8.92536C8.98955 6.28622 9.04974 6.29411 9.10591 6.30989C9.16209 6.32567 9.23832 6.39273 9.33462 6.51107C9.43092 6.62941 9.51117 6.80691 9.57537 7.04359L13.0283 16.5248C13.0604 16.6195 13.1126 16.7102 13.1848 16.797C13.257 16.8838 13.3413 16.9508 13.4376 16.9982C13.5339 17.0455 13.6382 17.0692 13.7506 17.0692H24.1507C24.3112 17.0692 24.4596 17.0218 24.5961 16.9272C24.7325 16.8325 24.8248 16.7142 24.8729 16.5722L28.5563 8.79029C28.6365 8.53783 28.6004 8.3051 28.448 8.09209ZM23.621 15.5545H14.3524L11.8968 9.2873H26.7266L23.621 15.5545ZM22.2328 17.8905C21.7031 17.8905 21.2497 18.0759 20.8726 18.4467C20.4954 18.8175 20.3068 19.2633 20.3068 19.784C20.3068 20.3047 20.4954 20.7504 20.8726 21.1212C21.2497 21.492 21.7031 21.6774 22.2328 21.6774C22.7624 21.6774 23.2158 21.492 23.593 21.1212C23.9701 20.7504 24.1587 20.3047 24.1587 19.784C24.1587 19.2633 23.9701 18.8175 23.593 18.4467C23.2158 18.0759 22.7624 17.8905 22.2328 17.8905ZM15.2993 17.8905C14.9462 17.8905 14.6212 17.9773 14.3243 18.1509C14.0274 18.3245 13.7947 18.5532 13.6262 18.8373C13.4576 19.1213 13.3734 19.4368 13.3734 19.784C13.3734 20.3047 13.562 20.7504 13.9391 21.1212C14.3163 21.492 14.7697 21.6774 15.2993 21.6774C15.829 21.6774 16.2824 21.492 16.6595 21.1212C17.0367 20.7504 17.2253 20.3047 17.2253 19.784C17.2253 19.6577 17.2133 19.5315 17.1892 19.4053C17.1651 19.2791 17.129 19.1607 17.0808 19.0503C17.0327 18.9398 16.9725 18.8333 16.9003 18.7308C16.8281 18.6282 16.7478 18.5335 16.6595 18.4467C16.5713 18.36 16.475 18.2811 16.3706 18.2101C16.2663 18.1391 16.158 18.0799 16.0456 18.0326C15.9333 17.9852 15.8129 17.9497 15.6845 17.9261C15.5561 17.9024 15.4277 17.8905 15.2993 17.8905Z" fill="white"/>
</g>
<defs>
<filter id="filter0_d_56_1540" x="0" y="0" width="35" height="35" filterUnits="userSpaceOnUse" color-interpolation-filters="sRGB">
<feFlood flood-opacity="0" result="BackgroundImageFix"/>
<feColorMatrix in="SourceAlpha" type="matrix" values="0 0 0 0 0 0 0 0 0 0 0 0 0 0 0 0 0 0 127 0" result="hardAlpha"/>
<feOffset dy="4"/>
<feGaussianBlur stdDeviation="2"/>
<feComposite in2="hardAlpha" operator="out"/>
<feColorMatrix type="matrix" values="0 0 0 0 0 0 0 0 0 0 0 0 0 0 0 0 0 0 0.25 0"/>
<feBlend mode="normal" in2="BackgroundImageFix" result="effect1_dropShadow_56_1540"/>
<feBlend mode="normal" in="SourceGraphic" in2="effect1_dropShadow_56_1540" result="shape"/>
</filter>
</defs>
</svg>
